PathFileType	4	(X/Y/Z)	 s11c0302.trc
DataRate	CameraRate	NumFrames	NumMarkers	Units	OrigDataRate	OrigDataStartFrame	OrigNumFrames
200	200	6	48	mm	200	1751	2000
Frame#	Time	racr			lacr			c7			jug			rlel			rdr			llel			ldr			s2			lic			ric			lasi			rasi			rpsi			lpsi			rgt			lgt			rth1			rth2			rth3			rth4			rlfc			rmfc			rsh1			rsh2			rsh3			rsh4			rlmal			rcal			rtoe			rmt5			lth1			lth2			lth4			lth3			llfc			lmfc			llmal			lcal			lmt5			lsh1			lsh2			lsh3			lsh4			ltoe			SBIKE			LBIKE			RBIKE			
		X1	Y1	Z1	X2	Y2	Z2	X3	Y3	Z3	X4	Y4	Z4	X5	Y5	Z5	X6	Y6	Z6	X7	Y7	Z7	X8	Y8	Z8	X9	Y9	Z9	X10	Y10	Z10	X11	Y11	Z11	X12	Y12	Z12	X13	Y13	Z13	X14	Y14	Z14	X15	Y15	Z15	X16	Y16	Z16	X17	Y17	Z17	X18	Y18	Z18	X19	Y19	Z19	X20	Y20	Z20	X21	Y21	Z21	X22	Y22	Z22	X23	Y23	Z23	X24	Y24	Z24	X25	Y25	Z25	X26	Y26	Z26	X27	Y27	Z27	X28	Y28	Z28	X29	Y29	Z29	X30	Y30	Z30	X31	Y31	Z31	X32	Y32	Z32	X33	Y33	Z33	X34	Y34	Z34	X35	Y35	Z35	X36	Y36	Z36	X37	Y37	Z37	X38	Y38	Z38	X39	Y39	Z39	X40	Y40	Z40	X41	Y41	Z41	X42	Y42	Z42	X43	Y43	Z43	X44	Y44	Z44	X45	Y45	Z45	X46	Y46	Z46	X47	Y47	Z47	X48	Y48	Z48	
1751	8.7550	804.622233	1379.744687	-76.189304	727.648395	1393.653302	-422.114634	725.970552	1493.777699	-234.246959	735.394116	1312.393838	-248.897028	696.755743	1152.945856	74.766106	800.551922	925.549793	-29.215235	592.632665	1130.148618	-543.961792	811.470517	923.368642	-429.082852	155.378333	1263.226902	-170.131550	356.531912	1285.450729	-386.936887	397.144358	1213.193075	0.795104	377.537716	1210.423947	-344.729806	409.939843	1156.628384	-42.125307	217.861008	1321.953136	-105.845919	200.474886	1334.468206	-199.012606	284.744788	1071.068188	18.065467	279.507198	1180.566356	-407.299425	321.973689	943.903620	12.013838	364.548973	868.069982	-9.853962	362.391796	782.583047	-30.215475	397.628889	879.300735	-22.961483	382.061306	681.162712	-55.271253	367.276940	671.612785	-178.935611	286.682854	547.910262	-48.383277	259.737862	466.647938	-70.727650	196.288945	407.309037	-76.028203	283.823122	456.727143	-100.121985	113.485469	303.977929	-97.689525	54.170199	325.948413	-148.536681	276.234902	142.520771	-136.933703	200.919300	158.393454	-70.114436	410.946014	1108.228307	-427.946874	493.230454	1084.044540	-425.597136	512.501882	1112.125524	-410.686976	548.774963	1020.168643	-437.534368	659.403547	937.582025	-422.414556	677.731480	919.089214	-285.983689	368.911647	624.428725	-401.720804	304.370931	637.131483	-370.450438	400.195761	452.215539	-434.557017	586.466720	844.863515	-436.273017	548.952737	768.035667	-424.988279	476.787149	717.184423	-422.754142	574.113588	749.254971	-402.211071	475.840390	392.514590	-366.463831	-204.189790	953.210850	-260.629700	1.350561	82.857147	-460.833277	-15.163033	81.213283	-62.266584	
1752	8.7600	803.023155	1379.953599	-76.373067	726.792109	1394.001044	-422.298306	724.720250	1494.386420	-234.656257	733.673565	1312.748197	-249.362037	695.706612	1152.829365	74.169551	800.496665	925.562744	-29.327771	592.532349	1130.310941	-544.198460	811.359163	923.397091	-429.119690	153.894449	1264.170238	-170.158520	354.120443	1287.391414	-387.565925	395.088272	1213.985759	-0.974117	374.917750	1211.965503	-346.114687	408.990974	1157.374762	-43.132438	216.633921	1322.839027	-106.143449	198.830134	1335.533302	-199.095838	285.088172	1072.033774	17.954282	276.960815	1181.964948	-408.040875	324.434603	945.186077	11.774125	367.674159	869.825572	-10.343246	366.225208	784.178350	-30.553247	400.518193	881.555963	-24.056062	385.632464	682.658578	-54.864275	370.798958	672.843380	-178.605822	287.743576	550.869116	-48.126630	259.049748	470.199398	-70.804223	194.694444	412.002349	-76.079646	282.906266	460.209885	-100.195810	109.102485	311.637280	-97.181668	50.819929	334.831892	-148.656332	267.755512	145.547456	-137.147440	192.899533	163.227006	-70.297550	408.390668	1109.134106	-428.613298	490.582236	1084.850169	-425.827619	509.913707	1112.934648	-411.011676	546.084080	1020.794305	-437.442349	658.294346	937.550560	-421.342917	675.861627	920.467215	-285.011925	373.007659	618.557383	-402.165030	307.929499	629.731616	-370.745683	408.192806	447.037688	-434.375991	586.659085	843.346401	-436.072444	550.464056	765.912046	-424.824382	479.153457	713.771304	-422.838171	575.828633	747.541983	-401.944905	485.307536	389.344125	-366.168611	-204.179268	953.242891	-260.651972	1.395444	82.940100	-460.801116	-15.157647	81.244156	-62.282965	
1753	8.7650	801.426358	1380.188325	-76.418652	726.081748	1394.372350	-422.420049	723.521166	1495.128475	-235.167957	731.935520	1313.116243	-249.752904	694.703131	1152.825272	73.941603	800.424070	925.572820	-29.471853	592.522800	1130.470586	-544.328943	811.226031	923.421494	-429.188183	152.418099	1265.193331	-170.339595	351.689938	1289.419046	-388.193842	394.038937	1214.997386	-1.809301	372.366595	1213.349048	-347.576905	407.907403	1158.186739	-44.112375	215.339607	1323.746167	-106.544569	197.238688	1336.417140	-199.456373	285.425867	1073.047055	17.722495	274.285811	1183.234565	-408.841278	326.948641	946.516613	11.685140	371.071116	871.503195	-10.753023	370.521948	785.945004	-30.496582	402.951258	883.834739	-24.422999	389.551078	684.371304	-54.458767	374.935436	674.110512	-178.261475	289.132843	554.090009	-47.896015	258.847322	474.116241	-70.840585	193.475282	416.907087	-76.161415	282.430535	463.465419	-100.412789	105.725804	319.183675	-97.345063	47.971591	343.949009	-148.703885	259.524964	148.807944	-137.506353	185.205319	168.696370	-70.699608	405.628423	1109.750900	-429.209774	487.661792	1085.167717	-426.088273	507.070931	1113.378467	-411.391881	543.048926	1020.992123	-437.432038	657.182445	936.924507	-419.959422	673.344446	920.810987	-284.418720	376.734794	612.024147	-402.786180	311.123756	621.680794	-371.133685	415.877608	441.334159	-434.280485	586.339182	841.132475	-435.647115	551.313786	763.155649	-425.029241	480.929777	709.752081	-423.084244	576.913848	745.292290	-402.056266	494.358783	385.685736	-365.754576	-204.167204	953.272217	-260.689772	1.391754	82.948457	-460.815679	-15.137876	81.283318	-62.286632	
1754	8.7700	799.767547	1380.633279	-76.339162	725.425871	1394.675776	-422.447416	722.351715	1495.837445	-235.430156	730.232934	1313.507007	-249.893549	693.506631	1152.679565	73.551523	800.359426	925.573029	-29.629081	592.543179	1130.648588	-544.374410	811.111616	923.429860	-429.269494	150.906326	1266.269487	-170.532344	349.365284	1291.403459	-388.985823	392.802239	1216.285403	-2.605460	369.801906	1214.726345	-349.240601	406.749609	1159.236034	-45.026990	214.010327	1324.782151	-107.174297	195.843436	1337.169171	-200.200051	285.742045	1074.266421	17.341993	271.570202	1184.290072	-409.657255	329.919250	947.858199	11.217985	374.569696	873.443930	-11.144064	374.954302	787.831525	-30.354860	406.626075	885.961028	-25.239108	394.647824	685.937285	-54.532038	379.598803	675.420146	-177.964692	291.028312	557.559472	-47.723806	259.214961	478.136436	-70.855473	192.420187	422.698867	-75.775023	282.693492	467.166642	-100.501558	102.859027	327.096892	-97.369445	45.660892	353.685689	-148.678456	251.605439	152.612965	-137.726800	177.895767	174.601732	-70.868184	402.612961	1109.942981	-429.895581	484.478746	1085.022911	-426.432179	503.971359	1113.221881	-411.957371	539.348760	1020.486516	-437.677702	655.457983	935.591658	-418.361641	670.244550	920.287612	-283.842431	379.958186	604.868141	-403.349623	313.696753	613.002519	-371.650098	423.136674	435.117859	-434.219487	585.077089	838.465506	-435.824158	551.502434	759.802180	-425.375448	482.183474	705.090236	-423.353581	577.473905	742.457181	-402.349841	502.934073	381.722413	-365.594366	-204.192139	953.340595	-260.780534	1.407793	83.018543	-460.832411	-15.189163	81.362746	-62.383544	
1755	8.7750	798.151558	1381.084128	-76.213711	724.872823	1394.912911	-422.372798	721.202866	1496.566994	-235.508623	728.549738	1313.896183	-249.910718	692.224248	1152.507752	73.266620	800.270679	925.532213	-29.811542	592.618037	1130.866481	-544.364665	810.953972	923.398063	-429.376555	149.462663	1267.382713	-171.075492	346.995893	1293.235630	-389.799400	391.409543	1217.703152	-3.353480	367.330271	1215.806836	-350.927439	405.483328	1160.315471	-45.809324	212.615198	1325.863239	-107.953651	195.362628	1337.603594	-201.413511	285.972788	1075.601370	16.822736	268.727135	1185.142878	-410.476334	332.637881	949.400275	11.189694	378.242317	875.452411	-11.356901	379.620037	789.809380	-30.152631	409.398244	887.978899	-25.718124	399.123102	688.123571	-54.095809	384.735033	676.878268	-177.776752	293.394683	561.142624	-47.616148	259.894431	482.549285	-70.937180	192.088883	428.323730	-75.657590	283.719412	471.101685	-100.814850	100.376670	335.482720	-97.215110	43.928703	363.789097	-148.601111	244.093544	156.961527	-137.914587	171.049379	180.890620	-70.985409	399.402967	1109.784973	-430.553353	481.024019	1084.265276	-426.742210	500.682369	1112.410227	-412.569145	540.680350	1018.326193	-435.173944	653.183804	932.677144	-416.304810	666.704439	918.736602	-283.600011	382.704844	597.160484	-403.967860	316.290471	603.703430	-372.168641	429.891343	428.289709	-434.021604	583.181977	835.073816	-436.160012	551.140920	755.767446	-425.691791	482.887244	699.743571	-423.717435	577.507811	738.880793	-402.714562	510.959519	377.197021	-365.233988	-204.142831	953.383081	-260.823404	1.406383	83.024997	-460.839182	-15.187517	81.397653	-62.393801	
1756	8.7800	796.461868	1381.761650	-76.093798	724.295609	1395.002172	-422.217543	720.088319	1497.268580	-235.542653	726.896644	1314.402849	-249.863290	690.939870	1152.378270	73.092563	800.158299	925.500292	-30.010139	592.711079	1131.129730	-544.343083	810.779195	923.360492	-429.499491	148.029635	1268.511369	-171.647892	344.723383	1295.059069	-390.764265	390.687807	1219.151210	-3.261224	364.858328	1216.768813	-352.610520	404.152714	1161.431822	-46.535238	211.140549	1326.980286	-108.861560	193.812212	1338.652456	-202.138062	286.050524	1076.960412	16.202454	265.867093	1185.774175	-411.287021	335.624243	951.029629	10.704336	381.918733	877.656876	-11.546688	384.438645	791.954612	-30.158292	413.126747	890.960752	-26.053019	404.169608	690.477498	-54.032121	390.298827	678.525356	-177.645624	296.072670	565.136514	-47.574083	260.990947	487.184091	-71.028472	192.166038	434.407697	-75.610492	284.519627	475.462309	-100.841468	98.237194	344.230641	-97.130437	42.639273	373.965588	-148.672684	236.898804	161.809419	-138.108986	164.548907	187.652783	-71.167884	395.922601	1109.080459	-431.294329	477.249409	1082.848413	-427.243247	497.236346	1111.031593	-413.258279	537.771560	1016.541057	-434.352959	649.212360	929.799828	-416.048087	662.678696	916.355306	-283.393040	384.909155	588.816629	-404.472533	318.192544	593.876912	-372.815905	436.149332	421.133806	-434.092121	580.684453	830.954474	-436.623955	550.250878	751.121294	-426.195531	483.137717	693.653597	-424.163715	576.876243	734.834838	-403.487863	518.508044	372.207999	-364.963683	-204.114939	953.422797	-260.900081	1.413693	83.047196	-460.831402	-15.161078	81.429272	-62.414239	
